<svg width="24" height="24" viewBox="0 0 24 24" fill="none" xmlns="http://www.w3.org/2000/svg">
<path d="M12 3C7.03778 3 3 7.03778 3 12C3 16.9622 7.03778 21 12 21C16.9622 21 21 16.9622 21 12C21 7.03778 16.9622 3 12 3ZM12 20.2306C7.46159 20.2306 3.76935 16.5384 3.76935 12C3.76935 7.46159 7.46159 3.76935 12 3.76935C16.5384 3.76935 20.2306 7.46159 20.2306 12C20.2306 16.5384 16.5384 20.2306 12 20.2306Z" fill="#FEDA00"/>
<path d="M11.8618 4.00149C7.57563 4.07429 4.08121 7.5626 4.0014 11.8484C3.97215 13.4279 4.4029 14.906 5.16844 16.1592C5.24246 16.2802 5.31984 16.399 5.40026 16.5157C5.49257 16.6515 5.59005 16.7837 5.69119 16.9132C5.72805 16.9607 5.76582 17.0076 5.80359 17.0539C7.27191 18.8509 9.50425 20 12.0001 20C14.4959 20 16.576 18.9283 18.0437 17.2358C18.3309 16.9044 18.5911 16.5495 18.8217 16.1748C19.5683 14.9581 20 13.5288 20 11.9998C20 7.5428 16.3356 3.92502 11.8618 4.00118V4.00149ZM10.7465 8.15449L9.10518 11.885C8.75394 11.9538 8.40392 12.0678 8.15809 12.2569L10.9704 6.16435L12.5634 9.66881C12.5634 9.66881 13.399 11.4856 12.1488 11.7887H10.4008L11.5029 9.366L10.7462 8.1551L10.7465 8.15449ZM5.60589 15.1887C5.12457 14.2279 4.85345 13.1455 4.85345 12.0001C4.85345 8.69856 7.10406 5.91395 10.1513 5.09663L5.60589 15.1887ZM6.29344 16.2972L6.93134 14.9154C7.16682 14.5612 7.42819 14.2194 7.71302 13.922C8.25892 13.3521 8.99399 13.0014 9.77842 12.9149C10.1004 12.8793 10.4989 12.8479 10.8979 12.8479C10.8979 12.8479 12.4031 13.063 13.2436 12.3587C14.3802 11.5438 13.5172 9.33615 13.5172 9.33615C13.3073 8.65226 12.9313 7.67958 12.2605 6.33769L11.5913 4.86572C11.7265 4.8578 11.863 4.85353 12.0001 4.85353C12.2048 4.85353 12.4068 4.86267 12.6075 4.87973C13.5982 6.12262 14.531 10.1227 14.531 10.1227C15.0833 12.4409 13.6229 13.31 12.7912 13.6107C12.5158 13.7103 12.2231 13.7502 11.9303 13.7423C11.0819 13.7192 10.2984 13.7804 9.7967 13.8346C9.22643 13.8961 8.69363 14.1575 8.30675 14.581C7.71546 15.2277 7.16286 16.1882 6.80187 16.8998C6.62183 16.7085 6.45215 16.5071 6.29344 16.2975V16.2972ZM18.3638 15.2505L16.4992 11.4853C16.4992 11.4853 16.4992 12.8479 16.1964 13.1507L17.6519 16.3685C17.4804 16.5897 17.297 16.8002 17.1024 16.9994L15.5914 13.9074C15.5914 13.9074 15.1369 14.6647 14.8341 14.8161L16.1376 17.5681L16.1382 17.5688L16.1964 17.6924H16.2064L16.2378 17.7494C15.0516 18.6261 13.5854 19.1467 12.0004 19.1467C10.4154 19.1467 8.88433 18.6042 7.68469 17.6924H7.71881C7.71881 17.6924 8.32472 16.1784 8.92972 15.4211C9.42261 14.8058 10.9162 14.7911 11.4566 14.807C11.6251 14.8119 11.7939 14.8109 11.962 14.7982C13.0425 14.7153 13.816 14.4344 14.3695 14.0335C16.2052 12.8324 15.7227 10.091 15.7227 10.091C15.5545 8.57915 14.3692 6.09551 13.8699 5.10242C16.9071 5.92583 19.147 8.70618 19.147 12.0001C19.147 13.1699 18.8646 14.2748 18.3641 15.2505H18.3638Z" fill="#FEDA00"/>
</svg>
