<svg width="48" height="48" viewBox="0 0 48 48" fill="none" xmlns="http://www.w3.org/2000/svg">
<rect width="48" height="48" rx="5" fill="#0E0E0E"/>
<path d="M24.2927 3C13.1041 3 4 12.3317 4 23.8C4 35.2682 13.1041 44.6 24.2927 44.6C35.4812 44.6 44.5853 35.2682 44.5853 23.8C44.5853 12.3317 35.4812 3 24.2927 3ZM24.2927 42.8219C14.0597 42.8219 5.73469 34.2888 5.73469 23.8C5.73469 13.3112 14.0597 4.77805 24.2927 4.77805C34.5256 4.77805 42.8507 13.3112 42.8507 23.8C42.8507 34.2888 34.5256 42.8219 24.2927 42.8219V42.8219Z" fill="white"/>
<path d="M24.0707 5.99652C14.8045 6.15785 7.25003 13.8877 7.07749 23.3849C7.01426 26.8849 7.94549 30.1602 9.60049 32.9373C9.76052 33.2053 9.9278 33.4686 10.1017 33.7271C10.3012 34.0282 10.512 34.3212 10.7306 34.6081C10.8103 34.7134 10.892 34.8173 10.9736 34.9199C14.1479 38.902 18.974 41.4482 24.3697 41.4482C29.7654 41.4482 34.2621 39.0734 37.4352 35.3229C38.0562 34.5885 38.6186 33.8021 39.1172 32.9718C40.7313 30.2757 41.6645 27.1084 41.6645 23.7204C41.6645 13.8438 33.7425 5.82708 24.0707 5.99584V5.99652ZM21.6597 15.1993L18.1113 23.4659C17.3519 23.6184 16.5952 23.8709 16.0637 24.2901L22.1437 10.7893L25.5874 18.5549C25.5874 18.5549 27.3939 22.5809 24.6911 23.2525H20.9122L23.2949 17.884L21.659 15.2007L21.6597 15.1993ZM10.5462 30.7867C9.50565 28.6576 8.91952 26.2592 8.91952 23.721C8.91952 16.4049 13.7851 10.2344 20.3728 8.42328L10.5462 30.7867ZM12.0326 33.2431L13.4117 30.1812C13.9207 29.3961 14.4858 28.6387 15.1016 27.9798C16.2817 26.7168 17.8709 25.9399 19.5667 25.7482C20.2628 25.6692 21.1242 25.5997 21.987 25.5997C21.987 25.5997 25.241 26.0762 27.058 24.5155C29.5151 22.7098 27.6494 17.8178 27.6494 17.8178C27.1956 16.3023 26.383 14.1469 24.9328 11.1734L23.4859 7.9116C23.7783 7.89405 24.0733 7.8846 24.3697 7.8846C24.8123 7.8846 25.2489 7.90485 25.6829 7.94266C27.8246 10.6968 29.8411 19.5608 29.8411 19.5608C31.0351 24.6978 27.8779 26.6237 26.08 27.29C25.4847 27.5107 24.8518 27.5991 24.2189 27.5816C22.3847 27.5303 20.6909 27.666 19.6062 27.7861C18.3734 27.9225 17.2215 28.5017 16.3851 29.44C15.1068 30.8731 13.9122 33.0015 13.1318 34.5784C12.7425 34.1544 12.3757 33.7082 12.0326 33.2438V33.2431ZM38.1273 30.9237L34.0962 22.5802C34.0962 22.5802 34.0962 25.5997 33.4416 26.2706L36.5882 33.4011C36.2175 33.8912 35.821 34.3576 35.4002 34.7991L32.1336 27.9474C32.1336 27.9474 31.151 29.6256 30.4964 29.9611L33.3145 36.0594L33.3158 36.0607L33.4416 36.3348H33.4633L33.5311 36.461C30.9666 38.4038 27.7969 39.5574 24.3703 39.5574C20.9438 39.5574 17.6338 38.3552 15.0403 36.3348H15.1141C15.1141 36.3348 16.424 32.9799 17.7319 31.3017C18.7975 29.9381 22.0265 29.9057 23.1948 29.9408C23.559 29.9516 23.9238 29.9496 24.2874 29.9213C26.6233 29.7377 28.2955 29.1153 29.4921 28.2269C33.4607 25.5652 32.4175 19.4906 32.4175 19.4906C32.0539 16.1403 29.4914 10.6367 28.412 8.43611C34.978 10.2607 39.8205 16.4218 39.8205 23.721C39.8205 26.3132 39.21 28.7615 38.128 30.9237H38.1273Z" fill="white"/>
</svg>
